<svg xmlns="http://www.w3.org/2000/svg" width="194.976" height="223.3" viewBox="0 0 194.976 223.3">
  <g id="Group_44" data-name="Group 44" transform="translate(0 0)" opacity="0.25">
    <path id="Path_98" data-name="Path 98" d="M175.895-334.382,143.541-348.12l-.066.155a.168.168,0,0,0-.09-.221L121.54-357.46a3.822,3.822,0,0,0-5.011,2.026L67.6-240.2c-3.243,7.637-11,11.931-20.439,7.923-11.254-4.777-13.369-12.081-9.787-20.518l20.982-49.424-27.93-11.857L10.641-267.465C.318-243.149,12.575-220.632,36.688-210.4c23.309,9.9,47.307,2.533,57.628-21.778L132.708-322.6l35.165,14.931c7.636,3.241,11.932,11,7.923,20.439-4.777,11.252-12.079,13.369-20.518,9.788L134.6-286.224l-11.84,27.888a.045.045,0,0,0,.024.061l17.825,7.568c24.314,10.323,46.833-1.934,57.07-26.047C207.57-300.064,200.207-324.061,175.895-334.382Z" transform="translate(-6.961 429.432)" fill="#fff"/>
    <path id="Path_99" data-name="Path 99" d="M86.067-402.558l-37.044,27.42,7.182,3.121-31.07,71.488,27.923,12.136,31.07-71.488,7.164,3.114Z" transform="translate(3.942 402.558)" fill="#fff"/>
  </g>
</svg>