<svg xmlns="http://www.w3.org/2000/svg" width="28.087" height="28.081" viewBox="0 0 28.087 28.081">
  <path id="Icon_awesome-instagram" data-name="Icon awesome-instagram" d="M14.042,9.079a7.2,7.2,0,1,0,7.2,7.2A7.188,7.188,0,0,0,14.042,9.079Zm0,11.88a4.681,4.681,0,1,1,4.681-4.681,4.689,4.689,0,0,1-4.681,4.681ZM23.215,8.784A1.679,1.679,0,1,1,21.536,7.1,1.675,1.675,0,0,1,23.215,8.784Zm4.768,1.7A8.31,8.31,0,0,0,25.715,4.6a8.365,8.365,0,0,0-5.884-2.268c-2.318-.132-9.267-.132-11.586,0A8.353,8.353,0,0,0,2.362,4.6,8.338,8.338,0,0,0,.093,10.482c-.132,2.318-.132,9.267,0,11.586a8.31,8.31,0,0,0,2.268,5.884A8.376,8.376,0,0,0,8.246,30.22c2.318.132,9.267.132,11.586,0a8.31,8.31,0,0,0,5.884-2.268,8.365,8.365,0,0,0,2.268-5.884c.132-2.318.132-9.261,0-11.58Zm-3,14.067a4.739,4.739,0,0,1-2.669,2.669c-1.848.733-6.235.564-8.277.564s-6.435.163-8.277-.564a4.739,4.739,0,0,1-2.669-2.669c-.733-1.848-.564-6.235-.564-8.277S2.368,9.843,3.095,8A4.739,4.739,0,0,1,5.764,5.332C7.613,4.6,12,4.768,14.042,4.768s6.435-.163,8.277.564A4.739,4.739,0,0,1,24.988,8c.733,1.848.564,6.235.564,8.277S25.721,22.713,24.988,24.556Z" transform="translate(0.005 -2.238)" fill="#fff"/>
</svg>