<svg xmlns="http://www.w3.org/2000/svg" width="28.072" height="28.071" viewBox="0 0 28.072 28.071">
  <path id="Icon_awesome-linkedin-in" data-name="Icon awesome-linkedin-in" d="M6.284,28.072H.464V9.33h5.82ZM3.37,6.774a3.387,3.387,0,1,1,3.37-3.4A3.4,3.4,0,0,1,3.37,6.774Zm24.7,21.3H22.258V18.949c0-2.174-.044-4.963-3.026-4.963-3.026,0-3.49,2.362-3.49,4.806v9.28H9.929V9.33h5.582v2.557h.081A6.115,6.115,0,0,1,21.1,8.86c5.89,0,6.973,3.879,6.973,8.917v10.3Z" transform="translate(0 0)" fill="#fff"/>
</svg>