<svg xmlns="http://www.w3.org/2000/svg" width="32.082" height="26.056" viewBox="0 0 32.082 26.056">
  <path id="Icon_awesome-twitter" data-name="Icon awesome-twitter" d="M28.784,9.874c.02.285.02.57.02.855,0,8.692-6.616,18.708-18.708,18.708A18.581,18.581,0,0,1,0,26.486a13.6,13.6,0,0,0,1.588.081,13.168,13.168,0,0,0,8.163-2.809A6.587,6.587,0,0,1,3.6,19.2a8.292,8.292,0,0,0,1.242.1,6.954,6.954,0,0,0,1.73-.224A6.576,6.576,0,0,1,1.3,12.623v-.081a6.622,6.622,0,0,0,2.972.835A6.585,6.585,0,0,1,2.239,4.582,18.69,18.69,0,0,0,15.8,11.462a7.423,7.423,0,0,1-.163-1.506,6.581,6.581,0,0,1,11.379-4.5,12.945,12.945,0,0,0,4.173-1.588A6.557,6.557,0,0,1,28.3,7.493a13.181,13.181,0,0,0,3.786-1.018,14.134,14.134,0,0,1-3.3,3.4Z" transform="translate(0 -3.381)" fill="#fff"/>
</svg>