<svg xmlns="http://www.w3.org/2000/svg" width="226.831" height="82" viewBox="0 0 226.831 82">
  <g id="Group_39" data-name="Group 39" transform="translate(-6.961 402.558)">
    <g id="Group_37" data-name="Group 37" transform="translate(6.961 -402.558)">
      <path id="Path_98" data-name="Path 98" d="M69-349.178l-11.881-5.044-.024.057a.062.062,0,0,0-.033-.081l-8.022-3.406a1.4,1.4,0,0,0-1.84.744L29.23-314.591a5.384,5.384,0,0,1-7.506,2.909c-4.133-1.754-4.909-4.436-3.594-7.534l7.7-18.149-10.256-4.354L8.312-324.6c-3.791,8.929.71,17.2,9.565,20.957,8.56,3.634,17.372.93,21.162-8l14.1-33.206,12.913,5.483a5.383,5.383,0,0,1,2.909,7.506c-1.754,4.132-4.436,4.909-7.534,3.594l-7.595-3.225-4.348,10.241a.017.017,0,0,0,.009.022l6.546,2.779c8.929,3.791,17.2-.71,20.957-9.565C80.629-336.576,77.925-345.388,69-349.178Z" transform="translate(-6.961 384.082)" fill="#fff"/>
      <path id="Path_99" data-name="Path 99" d="M47.51-402.558l-13.6,10.069,2.637,1.146-11.41,26.252,10.254,4.457L46.8-386.886l2.631,1.143Z" transform="translate(-14.457 402.558)" fill="#fff"/>
    </g>
    <path id="Path_100" data-name="Path 100" d="M154.718-312.178a17.431,17.431,0,0,1-10.653-3.569,1.471,1.471,0,0,1-.4-1.813l1.813-3.626a.352.352,0,0,1,.512-.13c3.4,2.281,6.389,3.143,9.43,2.908a3.4,3.4,0,0,0,2.7-1.666c2.1-3.681-1.8-5.05-6.478-7.2-4.043-1.893-7.83-4.759-7.83-10.338,0-5.783,4.862-9.826,11.055-9.826a14.3,14.3,0,0,1,9.523,3.815,1.4,1.4,0,0,1,.318,1.65l-1.719,3.512a.365.365,0,0,1-.543.13c-2.859-2.063-5.212-2.914-7.375-2.914-2.405,0-4.043,1.279-4.043,3.327,0,2.1,2.15,3.224,4.913,4.453,4.811,2.149,10.031,4.452,10.031,10.9C165.977-315.914,160.757-312.178,154.718-312.178Z" transform="translate(-56.323 -22.735)" fill="#fff"/>
    <path id="Path_101" data-name="Path 101" d="M205.447-340.037V-312.9a.558.558,0,0,1-.558.558h-6.458a.558.558,0,0,1-.558-.558v-27.133a.558.558,0,0,0-.558-.558h-7.942a.558.558,0,0,1-.558-.558v-4.77a.558.558,0,0,1,.558-.558h24.575a.558.558,0,0,1,.558.558v4.77a.559.559,0,0,1-.558.558h-7.942A.558.558,0,0,0,205.447-340.037Z" transform="translate(-75.009 -23.13)" fill="#fff"/>
    <path id="Path_102" data-name="Path 102" d="M258.054-313.269v-9.742a.528.528,0,0,0-.528-.528h-8.769a.528.528,0,0,0-.528.528v9.742a.528.528,0,0,1-.529.528h-6.517a.528.528,0,0,1-.529-.528v-19.943c0-9.109,5.681-14.227,12.488-14.227,6.858,0,12.487,5.118,12.487,14.227v19.943a.528.528,0,0,1-.528.528h-6.517A.528.528,0,0,1,258.054-313.269Zm0-21.017c0-4.76-2.047-7.012-4.913-7.012-2.815,0-4.913,2.253-4.913,7.012v4.334a.528.528,0,0,0,.528.528h8.769a.529.529,0,0,0,.528-.528Z" transform="translate(-96.392 -22.735)" fill="#fff"/>
    <path id="Path_103" data-name="Path 103" d="M318.777-312.558l-8.227-10.937a.531.531,0,0,0-.425-.212h-2.734a.532.532,0,0,0-.532.532v10.3a.532.532,0,0,1-.532.532h-6.51a.532.532,0,0,1-.532-.532v-33.071a.532.532,0,0,1,.532-.532h11.494c8.086,0,12.846,5.118,12.846,11.413a10.592,10.592,0,0,1-5.673,9.591.536.536,0,0,0-.187.8l8.648,11.484a.532.532,0,0,1-.425.852H319.2A.533.533,0,0,1,318.777-312.558ZM310.238-341h-2.846a.532.532,0,0,0-.532.532v10.757a.532.532,0,0,0,.532.532h2.846c3.94,0,6.243-2.2,6.243-5.885C316.481-338.8,314.178-341,310.238-341Z" transform="translate(-120.576 -23.13)" fill="#fff"/>
    <path id="Path_104" data-name="Path 104" d="M365.944-340.07v27.2a.526.526,0,0,1-.526.525h-6.523a.525.525,0,0,1-.525-.525v-27.2a.526.526,0,0,0-.526-.525h-8.007a.526.526,0,0,1-.525-.526v-4.834a.525.525,0,0,1,.525-.526h24.64a.526.526,0,0,1,.526.526v4.834a.526.526,0,0,1-.526.526h-8.007A.525.525,0,0,0,365.944-340.07Z" transform="translate(-141.21 -23.13)" fill="#fff"/>
    <g id="Group_38" data-name="Group 38" transform="translate(179.306 -330.707)">
      <path id="Path_105" data-name="Path 105" d="M310.031-271.036h-1.482l-1.751-5.42-1.751,5.42h-1.467l-3.279-8.975h2.186l1.826,5.661,1.752-5.661h1.482l1.751,5.661,1.811-5.661h2.186Z" transform="translate(-300.3 280.159)" fill="#fff"/>
      <path id="Path_106" data-name="Path 106" d="M329.876-271.168V-274H327v2.831h-2.216v-5.365a3.513,3.513,0,0,1,3.653-3.73,3.5,3.5,0,0,1,3.653,3.73v5.365Zm0-5.647c0-1.247-.6-1.838-1.437-1.838s-1.437.59-1.437,1.838v1.274h2.874Z" transform="translate(-310.4 280.263)" fill="#fff"/>
      <path id="Path_107" data-name="Path 107" d="M341.856-271.064v-8.947h2.216v7.405h3.383v1.542Z" transform="translate(-317.441 280.159)" fill="#fff"/>
      <path id="Path_108" data-name="Path 108" d="M354.7-271.064v-8.947h5.644v1.543h-3.428v1.757h3.039v1.543h-3.039v2.562h3.577v1.542Z" transform="translate(-322.736 280.159)" fill="#fff"/>
      <path id="Path_109" data-name="Path 109" d="M371.149-271.019a5.375,5.375,0,0,1-3.384-1.14l.734-1.315a4.791,4.791,0,0,0,2.575.832c.719,0,1.243-.295,1.243-.939,0-.616-.958-.939-2.066-1.395-1.183-.5-2.29-1.248-2.29-2.71,0-1.516,1.422-2.576,3.233-2.576a4.464,4.464,0,0,1,3.009,1.194l-.689,1.261a4.082,4.082,0,0,0-2.26-.832c-.7,0-1.183.335-1.183.872s.629.845,1.437,1.167c1.407.563,2.934,1.167,2.934,2.858C374.442-272,372.915-271.019,371.149-271.019Z" transform="translate(-328.128 280.263)" fill="#fff"/>
    </g>
  </g>
</svg>