<svg xmlns="http://www.w3.org/2000/svg" width="328.415" height="57.534" viewBox="0 0 328.415 57.534">
  <g id="Group_53" data-name="Group 53" transform="translate(0)">
    <path id="Path_113" data-name="Path 113" d="M354.189,740.7h10.022l8.8,31.052,9.536-31.18h8.014l9.536,31.18,8.8-31.052h9.776l-14.514,46.186h-8.138l-9.6-30-9.593,30H368.7Z" transform="translate(-282.468 -729.811)" fill="#575756"/>
    <path id="Path_114" data-name="Path 114" d="M418.364,784.915a17.33,17.33,0,0,1-6.771-1.309,15.634,15.634,0,0,1-5.406-3.734,17.379,17.379,0,0,1-3.549-5.733,20.289,20.289,0,0,1-1.279-7.369v-.133a20.973,20.973,0,0,1,1.186-7.074,18.207,18.207,0,0,1,3.307-5.83,15.683,15.683,0,0,1,5.071-3.933,14.688,14.688,0,0,1,6.529-1.439,14.893,14.893,0,0,1,7.046,1.573,14.512,14.512,0,0,1,4.951,4.224,18.109,18.109,0,0,1,2.912,6.093,27.052,27.052,0,0,1,.941,7.171c0,.4-.008.81-.029,1.246s-.053.9-.091,1.376H410.529a8.561,8.561,0,0,0,2.764,5.143,7.877,7.877,0,0,0,5.194,1.736,9.677,9.677,0,0,0,4.127-.85,14.148,14.148,0,0,0,3.768-2.755l5.283,5.046a16.647,16.647,0,0,1-5.59,4.816A16.275,16.275,0,0,1,418.364,784.915Zm5.951-21.093a10.034,10.034,0,0,0-2.187-5.406,5.837,5.837,0,0,0-4.676-2.062,5.967,5.967,0,0,0-4.7,2.03,10.516,10.516,0,0,0-2.338,5.439Z" transform="translate(-267.754 -727.381)" fill="#575756"/>
    <path id="Path_115" data-name="Path 115" d="M448,787.653a10.928,10.928,0,0,1-6.1-1.576,16.655,16.655,0,0,1-4.039-3.671V787h-9.233V739.17h9.233v17.757a15.163,15.163,0,0,1,4.1-4.1,10.65,10.65,0,0,1,6.043-1.6,13.557,13.557,0,0,1,5.528,1.178,13.717,13.717,0,0,1,4.736,3.507,17.753,17.753,0,0,1,3.31,5.7,22.421,22.421,0,0,1,1.244,7.764v.131a22.4,22.4,0,0,1-1.244,7.764,18.052,18.052,0,0,1-3.281,5.7,13.424,13.424,0,0,1-4.7,3.507A13.707,13.707,0,0,1,448,787.653Zm-2.367-8.453a6.966,6.966,0,0,0,3.067-.69,7.692,7.692,0,0,0,2.518-1.965,9.575,9.575,0,0,0,1.733-3.046,11.783,11.783,0,0,0,.638-3.995v-.131a11.9,11.9,0,0,0-.638-3.965,9.543,9.543,0,0,0-1.733-3.076,7.731,7.731,0,0,0-2.518-1.967,7.175,7.175,0,0,0-6.135,0,7.421,7.421,0,0,0-2.49,1.967,9.981,9.981,0,0,0-1.7,3.076,11.9,11.9,0,0,0-.634,3.965v.131a11.885,11.885,0,0,0,.634,3.966,9.975,9.975,0,0,0,1.7,3.075,7.385,7.385,0,0,0,2.49,1.965A6.958,6.958,0,0,0,445.632,779.2Z" transform="translate(-259.25 -730.248)" fill="#575756"/>
    <path id="Path_116" data-name="Path 116" d="M458.3,740.67H478q7.33,0,11.092,4.06a11.066,11.066,0,0,1,2.909,7.8v.133a12.137,12.137,0,0,1-.451,3.473,11.168,11.168,0,0,1-1.207,2.718,10.267,10.267,0,0,1-1.75,2.129,11.725,11.725,0,0,1-2.145,1.57,14.311,14.311,0,0,1,5.8,4.1,11.021,11.021,0,0,1,2.116,7.172v.133a12.657,12.657,0,0,1-1.119,5.5,10.524,10.524,0,0,1-3.213,3.932A14.572,14.572,0,0,1,485,785.742a25.218,25.218,0,0,1-6.515.787H458.3Zm24.471,13.561a4.151,4.151,0,0,0-1.578-3.505,7.377,7.377,0,0,0-4.552-1.211h-9.231v9.694h8.625a9.156,9.156,0,0,0,4.916-1.144,4.043,4.043,0,0,0,1.821-3.7Zm2.369,18.345a4.448,4.448,0,0,0-1.641-3.639q-1.635-1.338-5.282-1.341H467.407v10.09h11.115a8.483,8.483,0,0,0,4.855-1.212,4.265,4.265,0,0,0,1.761-3.769Z" transform="translate(-249.994 -729.78)" fill="#bad369"/>
    <path id="Path_117" data-name="Path 117" d="M505.01,784.915a17.214,17.214,0,0,1-6.983-1.409,16.9,16.9,0,0,1-5.557-3.866,18.189,18.189,0,0,1-3.676-5.763,18.794,18.794,0,0,1-1.334-7.107v-.133a18.8,18.8,0,0,1,1.334-7.108,18.324,18.324,0,0,1,3.7-5.8,17.489,17.489,0,0,1,5.589-3.933,17.06,17.06,0,0,1,7.046-1.439,17.263,17.263,0,0,1,6.983,1.406,17.078,17.078,0,0,1,5.556,3.866,18.137,18.137,0,0,1,3.673,5.767,18.775,18.775,0,0,1,1.338,7.105v.131a18.785,18.785,0,0,1-1.338,7.107,18.171,18.171,0,0,1-3.7,5.8,17.348,17.348,0,0,1-5.585,3.932A17.034,17.034,0,0,1,505.01,784.915Zm.123-8.581a8.057,8.057,0,0,0,3.553-.754,7.859,7.859,0,0,0,2.638-2.064A9.182,9.182,0,0,0,513,770.469a11.7,11.7,0,0,0,.577-3.7v-.133a11.144,11.144,0,0,0-.609-3.7,9.429,9.429,0,0,0-1.762-3.076,8.625,8.625,0,0,0-2.731-2.132,7.673,7.673,0,0,0-3.462-.784,8.064,8.064,0,0,0-3.554.75,7.927,7.927,0,0,0-2.64,2.068,9.229,9.229,0,0,0-1.67,3.042,11.6,11.6,0,0,0-.577,3.7v.131a11.066,11.066,0,0,0,.61,3.7,9.354,9.354,0,0,0,1.759,3.08,8.684,8.684,0,0,0,2.7,2.127A7.537,7.537,0,0,0,505.133,776.334Z" transform="translate(-240.898 -727.381)" fill="#bad369"/>
    <path id="Path_118" data-name="Path 118" d="M529.779,759.146l6.135-10.287h9.654l-10.99,17.165,11.477,17.951h-9.9L529.6,773.034l-6.557,10.941h-9.656L524.8,766.154l-10.994-17.3h9.9Z" transform="translate(-232.811 -727.226)" fill="#bad369"/>
    <path id="Path_119" data-name="Path 119" d="M546.469,778.918a5.866,5.866,0,0,1-2.518-.548,6.388,6.388,0,0,1-2.03-1.481,7,7,0,0,1-1.355-2.19,7.175,7.175,0,0,1-.5-2.667v-.038a7.193,7.193,0,0,1,.5-2.668,7.115,7.115,0,0,1,1.362-2.2,6.579,6.579,0,0,1,2.047-1.5,6.053,6.053,0,0,1,5.047-.008,6.4,6.4,0,0,1,2.028,1.481,7.188,7.188,0,0,1,1.852,4.857v.038a7.185,7.185,0,0,1-1.859,4.866,6.584,6.584,0,0,1-2.051,1.5A5.885,5.885,0,0,1,546.469,778.918Zm0-.766a5.277,5.277,0,0,0,2.26-.488,5.738,5.738,0,0,0,1.8-1.321,6.13,6.13,0,0,0,1.193-1.957,6.627,6.627,0,0,0,.437-2.392v-.038a6.535,6.535,0,0,0-.437-2.381,6.155,6.155,0,0,0-1.186-1.951,5.494,5.494,0,0,0-1.792-1.309,5.277,5.277,0,0,0-2.24-.477,5.217,5.217,0,0,0-2.262.487,5.674,5.674,0,0,0-1.8,1.321,6.084,6.084,0,0,0-1.2,1.957,6.635,6.635,0,0,0-.433,2.392v.038a6.741,6.741,0,0,0,.422,2.38,6.081,6.081,0,0,0,1.19,1.952,5.547,5.547,0,0,0,1.8,1.309A5.28,5.28,0,0,0,546.469,778.152Zm-2.624-10.04h3.032a2.731,2.731,0,0,1,2.106.8,2.264,2.264,0,0,1,.571,1.607v.038a2.269,2.269,0,0,1-1.472,2.274l1.666,2.64h-1.754l-1.455-2.369h-1.186v2.369h-1.507Zm3.013,3.6a1.178,1.178,0,0,0,.867-.3,1.014,1.014,0,0,0,.3-.754v-.037a1,1,0,0,0-.32-.806,1.34,1.34,0,0,0-.888-.265h-1.468v2.159Z" transform="translate(-224.487 -722.169)" fill="#575756"/>
    <g id="Group_52" data-name="Group 52" transform="translate(0 0)">
      <path id="Path_120" data-name="Path 120" d="M324.621,739.747l-6.871,8.931H307.8V777.32h26.81v-7.487l9.071-11.536v28.52H299.52v-47.07Z" transform="translate(-299.52 -730.068)" fill="#575756"/>
      <path id="Path_121" data-name="Path 121" d="M336.745,742.048H321.762l7.522-9.678h15.092Z" transform="translate(-292.583 -732.37)" fill="#bad369"/>
      <path id="Path_122" data-name="Path 122" d="M340.813,732.37v14.18l-7.631,9.637V742.048Z" transform="translate(-289.02 -732.37)" fill="#fdd237"/>
    </g>
  </g>
</svg>